<mxfile host="app.diagrams.net" modified="2023-10-14T19:41:17.348Z" agent="Mozilla/5.0 (Windows NT 10.0; Win64; x64) AppleWebKit/537.36 (KHTML, like Gecko) Chrome/117.0.0.0 Safari/537.36 Edg/117.0.2045.60" etag="uTN7R_DDmomjJJRVOpuU" version="22.0.4" type="device">
  <diagram id="kgpKYQtTHZ0yAKxKKP6v" name="Page-1">
    <mxGraphModel dx="1626" dy="793" grid="1" gridSize="10" guides="1" tooltips="1" connect="1" arrows="1" fold="1" page="1" pageScale="1" pageWidth="850" pageHeight="1100" math="0" shadow="0">
      <root>
        <mxCell id="0" />
        <mxCell id="1" parent="0" />
        <mxCell id="VAA3NsFkonueWu62Fr-n-1" value="" style="shape=actor;whiteSpace=wrap;html=1;" parent="1" vertex="1">
          <mxGeometry x="400" y="140" width="40" height="60" as="geometry" />
        </mxCell>
        <mxCell id="VAA3NsFkonueWu62Fr-n-2" value="&lt;h1&gt;&lt;b&gt;Diagrama de arquitetura - Squad 10&lt;/b&gt;&lt;/h1&gt;" style="text;html=1;strokeColor=none;fillColor=none;align=center;verticalAlign=middle;whiteSpace=wrap;rounded=0;" parent="1" vertex="1">
          <mxGeometry x="60" y="40" width="720" height="40" as="geometry" />
        </mxCell>
        <mxCell id="VAA3NsFkonueWu62Fr-n-3" value="Usuário" style="text;html=1;strokeColor=none;fillColor=none;align=center;verticalAlign=middle;whiteSpace=wrap;rounded=0;" parent="1" vertex="1">
          <mxGeometry x="390" y="200" width="60" height="30" as="geometry" />
        </mxCell>
        <mxCell id="VAA3NsFkonueWu62Fr-n-4" value="Página incial do site: Apresentação do projeto&amp;nbsp;" style="rounded=1;whiteSpace=wrap;html=1;" parent="1" vertex="1">
          <mxGeometry x="80" y="240" width="690" height="50" as="geometry" />
        </mxCell>
        <mxCell id="VAA3NsFkonueWu62Fr-n-7" value="Coleta de Dados" style="rounded=1;whiteSpace=wrap;html=1;" parent="1" vertex="1">
          <mxGeometry x="335" y="360" width="170" height="40" as="geometry" />
        </mxCell>
        <mxCell id="VAA3NsFkonueWu62Fr-n-8" value="Participantes" style="rounded=1;whiteSpace=wrap;html=1;" parent="1" vertex="1">
          <mxGeometry x="110" y="360" width="170" height="40" as="geometry" />
        </mxCell>
        <mxCell id="VAA3NsFkonueWu62Fr-n-9" value="Projeto" style="rounded=1;whiteSpace=wrap;html=1;" parent="1" vertex="1">
          <mxGeometry x="560" y="360" width="170" height="40" as="geometry" />
        </mxCell>
        <mxCell id="VAA3NsFkonueWu62Fr-n-12" value="" style="endArrow=none;html=1;rounded=0;" parent="1" source="VAA3NsFkonueWu62Fr-n-7" edge="1">
          <mxGeometry width="50" height="50" relative="1" as="geometry">
            <mxPoint x="360" y="340" as="sourcePoint" />
            <mxPoint x="420" y="290" as="targetPoint" />
          </mxGeometry>
        </mxCell>
        <mxCell id="VAA3NsFkonueWu62Fr-n-13" value="" style="endArrow=none;html=1;rounded=0;exitX=0.5;exitY=0;exitDx=0;exitDy=0;" parent="1" source="VAA3NsFkonueWu62Fr-n-8" edge="1">
          <mxGeometry width="50" height="50" relative="1" as="geometry">
            <mxPoint x="360" y="340" as="sourcePoint" />
            <mxPoint x="420" y="320" as="targetPoint" />
            <Array as="points">
              <mxPoint x="195" y="320" />
            </Array>
          </mxGeometry>
        </mxCell>
        <mxCell id="VAA3NsFkonueWu62Fr-n-14" value="" style="endArrow=none;html=1;rounded=0;exitX=0.5;exitY=0;exitDx=0;exitDy=0;" parent="1" source="VAA3NsFkonueWu62Fr-n-9" edge="1">
          <mxGeometry width="50" height="50" relative="1" as="geometry">
            <mxPoint x="360" y="340" as="sourcePoint" />
            <mxPoint x="420" y="320" as="targetPoint" />
            <Array as="points">
              <mxPoint x="645" y="320" />
            </Array>
          </mxGeometry>
        </mxCell>
        <mxCell id="VAA3NsFkonueWu62Fr-n-16" value="Portal da Transparencia" style="rounded=1;whiteSpace=wrap;html=1;" parent="1" vertex="1">
          <mxGeometry x="670" y="440" width="170" height="40" as="geometry" />
        </mxCell>
        <mxCell id="VAA3NsFkonueWu62Fr-n-17" value="" style="endArrow=none;html=1;rounded=0;" parent="1" edge="1">
          <mxGeometry width="50" height="50" relative="1" as="geometry">
            <mxPoint x="760" y="440" as="sourcePoint" />
            <mxPoint x="645" y="320" as="targetPoint" />
            <Array as="points">
              <mxPoint x="760" y="320" />
            </Array>
          </mxGeometry>
        </mxCell>
        <mxCell id="VAA3NsFkonueWu62Fr-n-20" value="" style="endArrow=none;html=1;rounded=0;entryX=0.5;entryY=1;entryDx=0;entryDy=0;" parent="1" target="VAA3NsFkonueWu62Fr-n-7" edge="1">
          <mxGeometry width="50" height="50" relative="1" as="geometry">
            <mxPoint x="420" y="440" as="sourcePoint" />
            <mxPoint x="410" y="530" as="targetPoint" />
          </mxGeometry>
        </mxCell>
        <mxCell id="VAA3NsFkonueWu62Fr-n-21" value="" style="endArrow=none;html=1;rounded=0;entryX=0.5;entryY=1;entryDx=0;entryDy=0;exitX=0.5;exitY=0;exitDx=0;exitDy=0;" parent="1" edge="1">
          <mxGeometry width="50" height="50" relative="1" as="geometry">
            <mxPoint x="420" y="520" as="sourcePoint" />
            <mxPoint x="420" y="480" as="targetPoint" />
          </mxGeometry>
        </mxCell>
        <mxCell id="VAA3NsFkonueWu62Fr-n-25" value="Iniciar raspagem de dados&lt;br&gt;" style="rounded=1;whiteSpace=wrap;html=1;" parent="1" vertex="1">
          <mxGeometry x="335" y="440" width="170" height="40" as="geometry" />
        </mxCell>
        <mxCell id="VAA3NsFkonueWu62Fr-n-27" value="Processamento dos PDFs" style="rounded=1;whiteSpace=wrap;html=1;" parent="1" vertex="1">
          <mxGeometry x="335" y="520" width="170" height="40" as="geometry" />
        </mxCell>
        <mxCell id="VAA3NsFkonueWu62Fr-n-28" value="" style="endArrow=none;html=1;rounded=0;exitX=0.5;exitY=0;exitDx=0;exitDy=0;entryX=0.5;entryY=1;entryDx=0;entryDy=0;" parent="1" source="VAA3NsFkonueWu62Fr-n-27" target="VAA3NsFkonueWu62Fr-n-25" edge="1">
          <mxGeometry width="50" height="50" relative="1" as="geometry">
            <mxPoint x="360" y="580" as="sourcePoint" />
            <mxPoint x="410" y="530" as="targetPoint" />
          </mxGeometry>
        </mxCell>
        <mxCell id="VAA3NsFkonueWu62Fr-n-30" value="" style="endArrow=none;html=1;rounded=0;entryX=0.5;entryY=1;entryDx=0;entryDy=0;" parent="1" source="BUYxBaNJKupuSsOnWEb6-1" target="VAA3NsFkonueWu62Fr-n-27" edge="1">
          <mxGeometry width="50" height="50" relative="1" as="geometry">
            <mxPoint x="420" y="760" as="sourcePoint" />
            <mxPoint x="410" y="530" as="targetPoint" />
          </mxGeometry>
        </mxCell>
        <mxCell id="VAA3NsFkonueWu62Fr-n-32" value="Página incial do site: Apresentação da Tabela de Dados" style="rounded=1;whiteSpace=wrap;html=1;" parent="1" vertex="1">
          <mxGeometry x="75" y="840" width="690" height="50" as="geometry" />
        </mxCell>
        <mxCell id="VAA3NsFkonueWu62Fr-n-34" value="" style="endArrow=none;html=1;rounded=0;entryX=0.471;entryY=1;entryDx=0;entryDy=0;entryPerimeter=0;" parent="1" source="VAA3NsFkonueWu62Fr-n-32" edge="1">
          <mxGeometry width="50" height="50" relative="1" as="geometry">
            <mxPoint x="360" y="700" as="sourcePoint" />
            <mxPoint x="420.06999999999994" y="800" as="targetPoint" />
          </mxGeometry>
        </mxCell>
        <mxCell id="BUYxBaNJKupuSsOnWEb6-2" value="" style="endArrow=none;html=1;rounded=0;entryX=0.5;entryY=1;entryDx=0;entryDy=0;" parent="1" target="BUYxBaNJKupuSsOnWEb6-1" edge="1">
          <mxGeometry width="50" height="50" relative="1" as="geometry">
            <mxPoint x="420" y="760" as="sourcePoint" />
            <mxPoint x="420" y="560" as="targetPoint" />
          </mxGeometry>
        </mxCell>
        <mxCell id="BUYxBaNJKupuSsOnWEb6-1" value="Importação para banco de dados" style="rounded=1;whiteSpace=wrap;html=1;" parent="1" vertex="1">
          <mxGeometry x="335" y="600" width="170" height="40" as="geometry" />
        </mxCell>
        <mxCell id="BUYxBaNJKupuSsOnWEb6-3" value="Extração TXT" style="rounded=1;whiteSpace=wrap;html=1;" parent="1" vertex="1">
          <mxGeometry x="335" y="680" width="170" height="40" as="geometry" />
        </mxCell>
        <mxCell id="BUYxBaNJKupuSsOnWEb6-4" value="Interpretar e fazer ligação com Front End" style="rounded=1;whiteSpace=wrap;html=1;" parent="1" vertex="1">
          <mxGeometry x="335" y="760" width="170" height="40" as="geometry" />
        </mxCell>
        <mxCell id="ol26ZVbQNBX8J6su2W50-1" value="" style="endArrow=none;html=1;rounded=0;" parent="1" edge="1">
          <mxGeometry width="50" height="50" relative="1" as="geometry">
            <mxPoint x="80" y="440" as="sourcePoint" />
            <mxPoint x="200" y="320" as="targetPoint" />
            <Array as="points">
              <mxPoint x="80" y="320" />
            </Array>
          </mxGeometry>
        </mxCell>
        <mxCell id="ol26ZVbQNBX8J6su2W50-2" value="Licitações" style="rounded=1;whiteSpace=wrap;html=1;" parent="1" vertex="1">
          <mxGeometry x="10" y="440" width="170" height="40" as="geometry" />
        </mxCell>
      </root>
    </mxGraphModel>
  </diagram>
</mxfile>
